<svg width="1024" height="1024" viewBox="0 0 1024 1024" fill="none" xmlns="http://www.w3.org/2000/svg">
<rect width="1024" height="1024" fill="url(#paint0_linear_1_7)"/>
<path d="M174.528 706H109.898L296.83 196.909H360.466L547.398 706H482.767L330.636 277.449H326.659L174.528 706ZM198.392 507.136H458.903V561.824H198.392V507.136ZM889.195 409.693L836.496 424.608C833.181 415.825 828.293 407.29 821.83 399.004C815.532 390.553 806.915 383.592 795.977 378.124C785.04 372.655 771.036 369.92 753.967 369.92C730.601 369.92 711.129 375.306 695.551 386.078C680.139 396.684 672.433 410.19 672.433 426.597C672.433 441.18 677.736 452.697 688.342 461.149C698.948 469.601 715.52 476.644 738.058 482.278L794.734 496.199C828.873 504.485 854.311 517.162 871.048 534.232C887.786 551.135 896.155 572.927 896.155 599.608C896.155 621.483 889.857 641.038 877.263 658.273C864.834 675.508 847.433 689.097 825.061 699.04C802.689 708.983 776.671 713.955 747.007 713.955C708.063 713.955 675.83 705.503 650.31 688.599C624.789 671.696 608.631 647.004 601.837 614.523L657.518 600.602C662.821 621.152 672.848 636.563 687.597 646.838C702.511 657.113 721.983 662.25 746.013 662.25C773.357 662.25 795.066 656.45 811.141 644.849C827.381 633.083 835.501 618.997 835.501 602.591C835.501 589.333 830.861 578.23 821.581 569.281C812.301 560.167 798.049 553.372 778.825 548.898L715.189 533.983C680.222 525.697 654.536 512.854 638.129 495.453C621.889 477.887 613.768 455.929 613.768 429.58C613.768 408.036 619.817 388.978 631.915 372.406C644.178 355.834 660.833 342.825 681.879 333.379C703.091 323.933 727.121 319.21 753.967 319.21C791.751 319.21 821.415 327.496 842.959 344.068C864.668 360.64 880.08 382.515 889.195 409.693Z" fill="white"/>
<path d="M467.097 52.2727V125H458.29V61.5057H457.864L440.108 73.2955V64.3466L458.29 52.2727H467.097ZM513.581 52.2727V125H504.774V61.5057H504.348L486.592 73.2955V64.3466L504.774 52.2727H513.581ZM557.651 51.2784C560.634 51.3021 563.616 51.8703 566.599 52.983C569.582 54.0956 572.305 55.9422 574.767 58.5227C577.229 61.0795 579.206 64.5715 580.697 68.9986C582.189 73.4257 582.935 78.9773 582.935 85.6534C582.935 92.1165 582.319 97.8575 581.088 102.876C579.881 107.872 578.129 112.086 575.832 115.518C573.56 118.951 570.79 121.555 567.523 123.331C564.279 125.107 560.61 125.994 556.514 125.994C552.442 125.994 548.808 125.189 545.612 123.58C542.44 121.946 539.836 119.685 537.8 116.797C535.787 113.885 534.497 110.511 533.929 106.676H542.594C543.375 110.014 544.926 112.772 547.246 114.95C549.589 117.105 552.679 118.182 556.514 118.182C562.125 118.182 566.552 115.732 569.795 110.831C573.063 105.93 574.696 99.0057 574.696 90.0568H574.128C572.802 92.0455 571.228 93.7618 569.405 95.206C567.582 96.6501 565.558 97.7628 563.332 98.544C561.107 99.3253 558.74 99.7159 556.23 99.7159C552.063 99.7159 548.24 98.6861 544.76 96.6264C541.304 94.5431 538.534 91.6903 536.45 88.0682C534.391 84.4223 533.361 80.2557 533.361 75.5682C533.361 71.1174 534.355 67.0455 536.344 63.3523C538.356 59.6354 541.173 56.6761 544.795 54.4744C548.441 52.2727 552.726 51.2074 557.651 51.2784ZM557.651 59.0909C554.668 59.0909 551.981 59.8366 549.589 61.3281C547.222 62.7959 545.34 64.7846 543.943 67.294C542.57 69.7798 541.884 72.5379 541.884 75.5682C541.884 78.5985 542.546 81.3565 543.872 83.8423C545.222 86.3044 547.056 88.2694 549.376 89.7372C551.72 91.1813 554.384 91.9034 557.366 91.9034C559.616 91.9034 561.711 91.4654 563.652 90.5895C565.593 89.6899 567.286 88.4706 568.73 86.9318C570.198 85.3693 571.346 83.6056 572.175 81.6406C573.003 79.652 573.418 77.5805 573.418 75.4261C573.418 72.5852 572.731 69.9219 571.358 67.4361C570.009 64.9503 568.138 62.938 565.747 61.3991C563.38 59.8603 560.681 59.0909 557.651 59.0909Z" fill="white"/>
<path d="M427.528 978V971.608L451.534 945.33C454.351 942.252 456.671 939.577 458.494 937.304C460.317 935.008 461.667 932.853 462.543 930.841C463.442 928.805 463.892 926.674 463.892 924.449C463.892 921.892 463.277 919.679 462.045 917.808C460.838 915.938 459.181 914.494 457.074 913.476C454.967 912.458 452.599 911.949 449.972 911.949C447.178 911.949 444.74 912.529 442.656 913.689C440.597 914.825 438.999 916.423 437.862 918.483C436.75 920.543 436.193 922.957 436.193 925.727H427.812C427.812 921.466 428.795 917.725 430.76 914.506C432.725 911.286 435.4 908.777 438.786 906.977C442.195 905.178 446.018 904.278 450.256 904.278C454.517 904.278 458.293 905.178 461.584 906.977C464.875 908.777 467.455 911.203 469.325 914.257C471.196 917.311 472.131 920.708 472.131 924.449C472.131 927.124 471.645 929.74 470.675 932.297C469.728 934.83 468.071 937.659 465.703 940.784C463.359 943.885 460.104 947.673 455.938 952.148L439.602 969.619V970.188H473.409V978H427.528ZM488.075 978V971.608L512.081 945.33C514.898 942.252 517.218 939.577 519.041 937.304C520.864 935.008 522.214 932.853 523.089 930.841C523.989 928.805 524.439 926.674 524.439 924.449C524.439 921.892 523.823 919.679 522.592 917.808C521.385 915.938 519.728 914.494 517.621 913.476C515.514 912.458 513.146 911.949 510.518 911.949C507.725 911.949 505.286 912.529 503.203 913.689C501.143 914.825 499.545 916.423 498.409 918.483C497.296 920.543 496.74 922.957 496.74 925.727H488.359C488.359 921.466 489.342 917.725 491.307 914.506C493.272 911.286 495.947 908.777 499.332 906.977C502.741 905.178 506.565 904.278 510.803 904.278C515.064 904.278 518.84 905.178 522.131 906.977C525.421 908.777 528.002 911.203 529.872 914.257C531.742 917.311 532.678 920.708 532.678 924.449C532.678 927.124 532.192 929.74 531.222 932.297C530.275 934.83 528.617 937.659 526.25 940.784C523.906 943.885 520.651 947.673 516.484 952.148L500.149 969.619V970.188H533.956V978H488.075ZM545.355 963.085V955.841L577.315 905.273H582.571V916.494H579.02L554.872 954.705V955.273H597.912V963.085H545.355ZM579.588 978V960.884V957.51V905.273H587.969V978H579.588Z" fill="white"/>
<path d="M260.79 851H251.557L278.261 778.273H287.352L314.057 851H304.824L283.091 789.778H282.523L260.79 851ZM264.199 822.591H301.415V830.403H264.199V822.591ZM362.885 808.67L355.357 810.801C354.883 809.546 354.185 808.327 353.261 807.143C352.362 805.936 351.131 804.942 349.568 804.161C348.006 803.379 346.005 802.989 343.567 802.989C340.229 802.989 337.447 803.758 335.222 805.297C333.02 806.812 331.919 808.741 331.919 811.085C331.919 813.169 332.677 814.814 334.192 816.021C335.707 817.229 338.074 818.235 341.294 819.04L349.391 821.028C354.268 822.212 357.902 824.023 360.293 826.462C362.684 828.876 363.879 831.99 363.879 835.801C363.879 838.926 362.98 841.72 361.18 844.182C359.405 846.644 356.919 848.585 353.723 850.006C350.527 851.426 346.81 852.136 342.572 852.136C337.009 852.136 332.404 850.929 328.759 848.514C325.113 846.099 322.804 842.572 321.834 837.932L329.788 835.943C330.546 838.879 331.978 841.08 334.085 842.548C336.216 844.016 338.998 844.75 342.43 844.75C346.337 844.75 349.438 843.921 351.734 842.264C354.054 840.583 355.214 838.571 355.214 836.227C355.214 834.333 354.552 832.747 353.226 831.469C351.9 830.167 349.864 829.196 347.118 828.557L338.027 826.426C333.032 825.242 329.362 823.408 327.018 820.922C324.698 818.412 323.538 815.276 323.538 811.511C323.538 808.434 324.402 805.711 326.131 803.344C327.883 800.976 330.262 799.118 333.268 797.768C336.299 796.419 339.732 795.744 343.567 795.744C348.964 795.744 353.202 796.928 356.28 799.295C359.381 801.663 361.583 804.788 362.885 808.67ZM400.216 796.455V803.557H371.949V796.455H400.216ZM380.188 783.386H388.569V835.375C388.569 837.742 388.912 839.518 389.598 840.702C390.309 841.862 391.208 842.643 392.297 843.045C393.41 843.424 394.582 843.614 395.813 843.614C396.736 843.614 397.494 843.566 398.086 843.472C398.677 843.353 399.151 843.259 399.506 843.188L401.211 850.716C400.642 850.929 399.849 851.142 398.831 851.355C397.813 851.592 396.523 851.71 394.961 851.71C392.593 851.71 390.273 851.201 388 850.183C385.751 849.165 383.881 847.615 382.39 845.531C380.922 843.448 380.188 840.82 380.188 837.648V783.386ZM412.823 851V796.455H420.919V804.693H421.488C422.482 801.994 424.281 799.804 426.885 798.124C429.489 796.443 432.425 795.602 435.692 795.602C436.308 795.602 437.077 795.614 438 795.638C438.924 795.661 439.622 795.697 440.096 795.744V804.267C439.811 804.196 439.16 804.089 438.142 803.947C437.148 803.782 436.095 803.699 434.982 803.699C432.33 803.699 429.963 804.255 427.88 805.368C425.82 806.457 424.186 807.972 422.979 809.913C421.795 811.831 421.203 814.021 421.203 816.483V851H412.823ZM466.081 852.278C462.625 852.278 459.488 851.627 456.67 850.325C453.853 849 451.616 847.094 449.959 844.608C448.302 842.098 447.473 839.068 447.473 835.517C447.473 832.392 448.089 829.859 449.32 827.918C450.551 825.953 452.196 824.414 454.256 823.301C456.315 822.188 458.588 821.36 461.074 820.815C463.583 820.247 466.105 819.797 468.638 819.466C471.952 819.04 474.639 818.72 476.699 818.507C478.782 818.27 480.297 817.88 481.244 817.335C482.215 816.791 482.7 815.844 482.7 814.494V814.21C482.7 810.706 481.741 807.984 479.824 806.043C477.93 804.101 475.054 803.131 471.195 803.131C467.194 803.131 464.057 804.007 461.784 805.759C459.511 807.51 457.913 809.381 456.99 811.369L449.036 808.528C450.456 805.214 452.35 802.634 454.717 800.787C457.108 798.917 459.713 797.615 462.53 796.881C465.371 796.123 468.164 795.744 470.911 795.744C472.662 795.744 474.675 795.957 476.947 796.384C479.244 796.786 481.457 797.626 483.588 798.905C485.742 800.183 487.53 802.113 488.95 804.693C490.371 807.274 491.081 810.73 491.081 815.062V851H482.7V843.614H482.274C481.706 844.797 480.759 846.064 479.433 847.413C478.107 848.763 476.344 849.911 474.142 850.858C471.94 851.805 469.253 852.278 466.081 852.278ZM467.359 844.75C470.674 844.75 473.467 844.099 475.74 842.797C478.036 841.495 479.765 839.814 480.925 837.754C482.108 835.695 482.7 833.528 482.7 831.256V823.585C482.345 824.011 481.564 824.402 480.357 824.757C479.173 825.089 477.8 825.384 476.237 825.645C474.698 825.882 473.195 826.095 471.727 826.284C470.283 826.45 469.111 826.592 468.212 826.71C466.034 826.994 463.998 827.456 462.104 828.095C460.233 828.711 458.718 829.646 457.558 830.901C456.422 832.132 455.854 833.812 455.854 835.943C455.854 838.855 456.931 841.057 459.085 842.548C461.263 844.016 464.021 844.75 467.359 844.75ZM514.758 778.273V851H506.377V778.273H514.758ZM530.108 851V796.455H538.489V851H530.108ZM534.369 787.364C532.736 787.364 531.327 786.807 530.143 785.695C528.983 784.582 528.403 783.244 528.403 781.682C528.403 780.119 528.983 778.782 530.143 777.669C531.327 776.556 532.736 776 534.369 776C536.003 776 537.4 776.556 538.56 777.669C539.743 778.782 540.335 780.119 540.335 781.682C540.335 783.244 539.743 784.582 538.56 785.695C537.4 786.807 536.003 787.364 534.369 787.364ZM562.219 818.188V851H553.838V796.455H561.935V804.977H562.645C563.924 802.207 565.865 799.982 568.469 798.301C571.073 796.597 574.435 795.744 578.554 795.744C582.248 795.744 585.479 796.502 588.249 798.017C591.019 799.509 593.173 801.781 594.712 804.835C596.251 807.866 597.02 811.701 597.02 816.341V851H588.64V816.909C588.64 812.624 587.527 809.286 585.301 806.895C583.076 804.48 580.022 803.273 576.14 803.273C573.464 803.273 571.073 803.853 568.966 805.013C566.883 806.173 565.238 807.866 564.03 810.091C562.823 812.316 562.219 815.015 562.219 818.188ZM612.335 851V796.455H620.715V851H612.335ZM616.596 787.364C614.962 787.364 613.554 786.807 612.37 785.695C611.21 784.582 610.63 783.244 610.63 781.682C610.63 780.119 611.21 778.782 612.37 777.669C613.554 776.556 614.962 776 616.596 776C618.229 776 619.626 776.556 620.786 777.669C621.97 778.782 622.562 780.119 622.562 781.682C622.562 783.244 621.97 784.582 620.786 785.695C619.626 786.807 618.229 787.364 616.596 787.364ZM670.44 828.699V796.455H678.821V851H670.44V841.767H669.872C668.593 844.537 666.605 846.893 663.906 848.834C661.207 850.751 657.798 851.71 653.679 851.71C650.27 851.71 647.239 850.964 644.588 849.473C641.936 847.958 639.853 845.685 638.338 842.655C636.823 839.601 636.065 835.754 636.065 831.114V796.455H644.446V830.545C644.446 834.523 645.558 837.695 647.784 840.062C650.033 842.43 652.897 843.614 656.377 843.614C658.461 843.614 660.58 843.081 662.734 842.016C664.912 840.95 666.735 839.317 668.203 837.115C669.694 834.913 670.44 832.108 670.44 828.699ZM694.17 851V796.455H702.267V804.977H702.977C704.114 802.065 705.948 799.804 708.482 798.195C711.015 796.561 714.057 795.744 717.608 795.744C721.206 795.744 724.201 796.561 726.592 798.195C729.007 799.804 730.889 802.065 732.239 804.977H732.807C734.204 802.16 736.299 799.923 739.092 798.266C741.886 796.585 745.236 795.744 749.142 795.744C754.019 795.744 758.008 797.271 761.109 800.325C764.211 803.356 765.761 808.079 765.761 814.494V851H757.381V814.494C757.381 810.47 756.28 807.593 754.078 805.865C751.876 804.137 749.284 803.273 746.301 803.273C742.466 803.273 739.495 804.433 737.388 806.753C735.281 809.049 734.227 811.961 734.227 815.489V851H725.705V813.642C725.705 810.541 724.698 808.043 722.686 806.149C720.674 804.232 718.081 803.273 714.909 803.273C712.731 803.273 710.695 803.853 708.801 805.013C706.931 806.173 705.416 807.783 704.256 809.842C703.119 811.878 702.551 814.234 702.551 816.909V851H694.17Z" fill="white"/>
<defs>
<linearGradient id="paint0_linear_1_7" x1="512" y1="0" x2="512" y2="1024" gradientUnits="userSpaceOnUse">
<stop stop-color="#4568DC"/>
<stop offset="1" stop-color="#B06AB3"/>
</linearGradient>
</defs>
</svg>
